<?xml version="1.0" encoding="UTF-8"?>
<!-- Generator: Adobe Illustrator 24.3.0, SVG Export Plug-In . SVG Version: 6.00 Build 0)  -->
<svg version="1.1" id="Layer_1" xmlns="http://www.w3.org/2000/svg" xmlns:xlink="http://www.w3.org/1999/xlink" x="0px" y="0px" viewBox="0 0 300 100" style="enable-background:new 0 0 300 100;" xml:space="preserve">
<style type="text/css">
	.st0{fill:none;}
	.st1{fill:#FF1975;}
	.st2{fill:#774DEE;}
</style>
<rect id="Rectangle_450" x="-0.2" y="5.9" class="st0" width="300" height="100"/>
<g>
	<g id="Group_492" transform="translate(15276 -6321)">
		<ellipse id="XMLID_151_" class="st1" cx="-15242.6" cy="6376.8" rx="5.6" ry="5.6"/>
		<ellipse id="XMLID_152_" class="st2" cx="-15212.1" cy="6376.8" rx="5.6" ry="5.6"/>
		<path id="XMLID_150_" class="st1" d="M-15223.3,6380.6c0,0.3-0.1,0.6-0.2,0.8l0,0c-2.5,10.4-13.1,16.8-23.5,14.3    c-10.4-2.5-16.8-13.1-14.3-23.5c2.1-8.5,9.7-14.6,18.5-14.8c5-0.1,9.8,1.7,13.5,5c0.1,0.1,0.2,0.2,0.4,0.3l0,0    c0.7,0.7,1,1.6,1.1,2.6c0,2.1-1.6,3.9-3.8,3.9c-0.9,0-1.7-0.3-2.4-0.8c-0.2-0.2-0.4-0.3-0.6-0.5c-2.2-1.9-5-2.9-7.9-2.9    c-6.4,0.1-11.5,5.4-11.5,11.8v0.2c0.1,6.5,5.5,11.6,12,11.5c5.3-0.1,9.8-3.7,11.1-8.9l0,0c0-0.2,0.1-0.4,0.1-0.6    C-15230.4,6377.5-15223.3,6380.5-15223.3,6380.6z"/>
		<path id="XMLID_149_" class="st1" d="M-15227.6,6344.9c0.1,1-0.3,2-0.9,2.8l-8.4,9.7c-2.2-0.7-4.6-0.9-6.9-0.7c-1,0.1-2,0.2-3,0.5    l10-11.6l2.5-2.9c1.4-1.6,3.8-1.8,5.4-0.4C-15228.2,6342.9-15227.7,6343.9-15227.6,6344.9z"/>
		<path id="XMLID_148_" class="st1" d="M-15237.6,6345L-15237.6,6345c0,0.5-0.1,0.9-0.4,1.2l-9.7,11.2c-1.7,0.5-3.4,1.2-4.9,2.2    l3.7-7.6l4-8.4c0.9-1.9,3.2-2.7,5.1-1.8c0,0,0,0,0,0C-15238.5,6342.4-15237.7,6343.6-15237.6,6345z"/>
		<path id="XMLID_147_" class="st1" d="M-15249.4,6350.8c0,0.3,0,0.7,0,1l0,0c0,0.1,0,0.2-0.1,0.3l-3.8,7.9    c-3.3,2.3-5.8,5.5-7.2,9.2l3.6-18.9c0.4-2.1,2.4-3.4,4.5-3.1C-15250.8,6347.7-15249.5,6349.1-15249.4,6350.8z"/>
		<path id="XMLID_146_" class="st2" d="M-15226.8,6345.1c-0.1,1,0.3,2,0.9,2.8l8.4,9.7c2.2-0.7,4.6-0.9,6.9-0.7c1,0.1,2,0.2,3,0.5    l-10-11.5l-2.5-2.9c-1.4-1.6-3.8-1.8-5.4-0.4C-15226.3,6343.1-15226.8,6344-15226.8,6345.1z"/>
		<path id="XMLID_145_" class="st2" d="M-15216.9,6345.1L-15216.9,6345.1c0,0.5,0.1,0.9,0.4,1.2l9.7,11.2c1.7,0.5,3.4,1.2,4.9,2.2    l-3.7-7.6l-4-8.4c-0.9-1.9-3.2-2.7-5.1-1.8c0,0,0,0,0,0C-15216,6342.6-15216.8,6343.7-15216.9,6345.1z"/>
		<path id="XMLID_144_" class="st2" d="M-15205.1,6351c0,0.3,0,0.7,0,1l0,0c0,0.1,0,0.2,0.1,0.3l3.8,7.9c3.3,2.3,5.8,5.5,7.2,9.2    l-3.6-18.9c-0.4-2.1-2.4-3.4-4.5-3.1C-15203.7,6347.8-15204.9,6349.3-15205.1,6351z"/>
		<path id="XMLID_143_" class="st2" d="M-15231.2,6380.6c0,0.2,0,0.3,0,0.5c0,0.3,0.1,0.6,0.2,0.8l0,0c2.8,10.4,13.4,16.5,23.8,13.8    c10.4-2.8,16.5-13.4,13.8-23.8c-2.8-10.4-13.4-16.5-23.8-13.8c-3.1,0.8-6,2.4-8.4,4.7c-0.1,0.1-0.2,0.2-0.3,0.3l0,0    c-0.6,0.7-1,1.6-1,2.6c0,2.1,1.7,3.9,3.9,3.9c0.9,0,1.7-0.3,2.4-0.8c0.2-0.2,0.4-0.3,0.6-0.5c4.8-4.4,12.3-4,16.6,0.9    c1.9,2.1,3,4.8,3,7.7v0.2c0,6.5-5.2,11.7-11.7,11.7c-5.3,0-9.9-3.5-11.3-8.6l0,0c0-0.2-0.1-0.4-0.1-0.6c-0.5-1.6-2-2.6-3.7-2.6    c-2.1-0.1-3.9,1.6-3.9,3.6C-15231.2,6380.5-15231.2,6380.5-15231.2,6380.6z"/>
	</g>
	<g>
		<g>
			<path class="st2" d="M99,41.7h7.7l7.5,18.5l7.4-18.5h7.6v26.7h-6.5v-16l-6,16h-5.2l-6-16v16H99V41.7z"/>
			<path class="st2" d="M133.2,41.5c0-2,1.6-3.5,3.9-3.5c2.3,0,3.8,1.6,3.8,3.5c0,1.9-1.6,3.5-3.8,3.5     C134.8,45,133.2,43.4,133.2,41.5z M133.8,47.2h6.5v21.2h-6.5V47.2z"/>
			<path class="st2" d="M159.7,56.8c0-2.9-1.6-4.5-4.1-4.5s-4.1,1.6-4.1,4.5v11.5h-6.5V47.2h6.5V50c1.3-1.8,3.6-3,6.4-3     c4.9,0,8.2,3.3,8.2,9v12.4h-6.5V56.8z"/>
			<path class="st2" d="M178.7,46.9c2.8,0,5.2,1.3,6.5,3.2v-9.8h6.5v28.1h-6.5v-3c-1.2,1.9-3.4,3.3-6.5,3.3c-5.2,0-9.3-4.3-9.3-10.9     C169.4,51,173.5,46.9,178.7,46.9z M180.6,52.5c-2.4,0-4.6,1.8-4.6,5.2c0,3.4,2.2,5.3,4.6,5.3c2.5,0,4.6-1.9,4.6-5.2     S183.1,52.5,180.6,52.5z"/>
			<path class="st1" d="M195.1,41.7h7l3.8,19.4l4.7-19.4h7.1l4.6,19.4l3.9-19.4h7l-7,26.7h-7.9l-4.3-17.6l-4.4,17.6h-7.9L195.1,41.7     z"/>
			<path class="st1" d="M246.1,68.7c-6.2,0-10.9-4.2-10.9-10.9c0-6.7,4.8-10.9,11-10.9c6.2,0,11,4.2,11,10.9     C257.2,64.5,252.3,68.7,246.1,68.7z M246.1,63c2.3,0,4.5-1.7,4.5-5.3c0-3.6-2.1-5.3-4.4-5.3c-2.4,0-4.4,1.7-4.4,5.3     C241.8,61.3,243.7,63,246.1,63z"/>
			<path class="st1" d="M271.6,60.2l-4.8,8.2h-7.4l8.5-13.6l-8.7-13.1h7.6l5.4,8.1l4.7-8.1h7.4l-8.5,13.5l8.8,13.2H277L271.6,60.2z"/>
		</g>
	</g>
</g>
<rect x="-99.4" y="-147.2" class="st1" width="77" height="77"/>
</svg>